<svg width="960" height="720" viewBox="0 0 960 720" fill="none" xmlns="http://www.w3.org/2000/svg">
  <rect width="960" height="720" rx="48" fill="#F8FAFC"/>
  <rect x="48" y="48" width="864" height="624" rx="34" fill="url(#bg2)"/>
  <rect x="104" y="120" width="752" height="472" rx="34" fill="#FFFFFF" fill-opacity="0.82"/>
  <rect x="104" y="120" width="752" height="108" rx="34" fill="#1E293B"/>
  <circle cx="176" cy="176" r="20" fill="#F4A261"/>
  <circle cx="244" cy="176" r="20" fill="#E76F51"/>
  <circle cx="312" cy="176" r="20" fill="#F8FAFC" fill-opacity="0.85"/>
  <rect x="148" y="270" width="148" height="92" rx="24" fill="#F4A261"/>
  <rect x="314" y="270" width="148" height="92" rx="24" fill="#E2E8F0"/>
  <rect x="480" y="270" width="148" height="92" rx="24" fill="#E2E8F0"/>
  <rect x="646" y="270" width="148" height="92" rx="24" fill="#E2E8F0"/>
  <rect x="148" y="380" width="314" height="164" rx="28" fill="#1E1B4B"/>
  <rect x="500" y="380" width="294" height="28" rx="14" fill="#CBD5E1"/>
  <rect x="500" y="426" width="246" height="20" rx="10" fill="#E2E8F0"/>
  <rect x="500" y="462" width="210" height="20" rx="10" fill="#E2E8F0"/>
  <rect x="500" y="498" width="176" height="20" rx="10" fill="#E2E8F0"/>
  <defs>
    <linearGradient id="bg2" x1="92" y1="90" x2="902" y2="646" gradientUnits="userSpaceOnUse">
      <stop stop-color="#E2E8F0"/>
      <stop offset="0.5" stop-color="#F8FAFC"/>
      <stop offset="1" stop-color="#CBD5E1"/>
    </linearGradient>
  </defs>
</svg>
